<?xml version="1.0" encoding="UTF-8"?>
<svg width="700pt" height="700pt" version="1.1" viewBox="0 0 700 700" xmlns="http://www.w3.org/2000/svg" xmlns:xlink="http://www.w3.org/1999/xlink">
 <defs>
  <symbol id="n" overflow="visible">
   <path d="m41.875-2.5c-2.1562 1.1172-4.4062 1.9609-6.75 2.5312s-4.7891 0.85938-7.3281 0.85938c-7.5859 0-13.594-2.1172-18.031-6.3594-4.4375-4.25-6.6562-10.004-6.6562-17.266 0-7.2812 2.2188-13.039 6.6562-17.281 4.4375-4.25 10.445-6.375 18.031-6.375 2.5391 0 4.9844 0.28906 7.3281 0.85938 2.3438 0.57422 4.5938 1.418 6.75 2.5312v9.4375c-2.1797-1.4883-4.3281-2.5781-6.4531-3.2656-2.1172-0.69531-4.3398-1.0469-6.6719-1.0469-4.1875 0-7.4844 1.3438-9.8906 4.0312-2.3984 2.6875-3.5938 6.3906-3.5938 11.109 0 4.6992 1.1953 8.3906 3.5938 11.078 2.4062 2.6875 5.7031 4.0312 9.8906 4.0312 2.332 0 4.5547-0.34375 6.6719-1.0312 2.125-0.69531 4.2734-1.7891 6.4531-3.2812z"/>
  </symbol>
  <symbol id="h" overflow="visible">
   <path d="m30.641-24.875c-0.96094-0.44531-1.9141-0.77344-2.8594-0.98438-0.9375-0.21875-1.8867-0.32812-2.8438-0.32812-2.8125 0-4.9805 0.90234-6.5 2.7031-1.5117 1.8047-2.2656 4.3828-2.2656 7.7344v15.75h-10.922v-34.188h10.922v5.625c1.4062-2.2383 3.0195-3.8672 4.8438-4.8906 1.8203-1.0312 4.0039-1.5469 6.5469-1.5469 0.36328 0 0.75781 0.015625 1.1875 0.046875 0.42578 0.03125 1.0469 0.09375 1.8594 0.1875z"/>
  </symbol>
  <symbol id="b" overflow="visible">
   <path d="m39.375-17.188v3.125h-25.547c0.25781 2.5625 1.1797 4.4844 2.7656 5.7656 1.5938 1.2812 3.8125 1.9219 6.6562 1.9219 2.3008 0 4.6562-0.33594 7.0625-1.0156 2.4141-0.6875 4.8945-1.7227 7.4375-3.1094v8.4219c-2.5859 0.98047-5.168 1.7188-7.75 2.2188-2.5859 0.5-5.168 0.75-7.75 0.75-6.1875 0-10.996-1.5703-14.422-4.7188-3.4297-3.1445-5.1406-7.5547-5.1406-13.234 0-5.5703 1.6797-9.9531 5.0469-13.141 3.3633-3.1953 8-4.7969 13.906-4.7969 5.3633 0 9.6602 1.6211 12.891 4.8594 3.2266 3.2305 4.8438 7.5469 4.8438 12.953zm-11.234-3.625c0-2.0703-0.60938-3.7422-1.8281-5.0156-1.2109-1.2695-2.7891-1.9062-4.7344-1.9062-2.1172 0-3.8359 0.59375-5.1562 1.7812-1.3242 1.1875-2.1484 2.9023-2.4688 5.1406z"/>
  </symbol>
  <symbol id="a" overflow="visible">
   <path d="m20.562-15.375c-2.2734 0-3.9844 0.38672-5.1406 1.1562-1.1484 0.77344-1.7188 1.9141-1.7188 3.4219 0 1.375 0.46094 2.4609 1.3906 3.25 0.92578 0.78125 2.2109 1.1719 3.8594 1.1719 2.0508 0 3.7812-0.73438 5.1875-2.2031 1.4062-1.4766 2.1094-3.3281 2.1094-5.5469v-1.25zm16.703-4.125v19.5h-11.016v-5.0625c-1.4688 2.0742-3.1211 3.5859-4.9531 4.5312-1.8242 0.94531-4.0469 1.4219-6.6719 1.4219-3.543 0-6.418-1.0312-8.625-3.0938-2.2109-2.0703-3.3125-4.7539-3.3125-8.0469 0-4.0078 1.375-6.9453 4.125-8.8125 2.7578-1.875 7.0938-2.8125 13-2.8125h6.4375v-0.85938c0-1.7266-0.68359-2.9922-2.0469-3.7969-1.3672-0.80078-3.4922-1.2031-6.375-1.2031-2.3438 0-4.5273 0.23438-6.5469 0.70312-2.0117 0.46094-3.8828 1.1562-5.6094 2.0938v-8.3281c2.3438-0.57031 4.6914-1.0039 7.0469-1.2969 2.3633-0.28906 4.7266-0.4375 7.0938-0.4375 6.1562 0 10.602 1.2188 13.344 3.6562 2.7383 2.4297 4.1094 6.375 4.1094 11.844z"/>
  </symbol>
  <symbol id="g" overflow="visible">
   <path d="m17.188-43.891v9.7031h11.25v7.8125h-11.25v14.5c0 1.5938 0.3125 2.6719 0.9375 3.2344 0.63281 0.55469 1.8828 0.82812 3.75 0.82812h5.625v7.8125h-9.375c-4.3125 0-7.3711-0.89844-9.1719-2.7031-1.8047-1.8008-2.7031-4.8594-2.7031-9.1719v-14.5h-5.4219v-7.8125h5.4219v-9.7031z"/>
  </symbol>
  <symbol id="f" overflow="visible">
   <path d="m28.5-29.172v-18.312h10.984v47.484h-10.984v-4.9375c-1.5 2.0117-3.1562 3.4844-4.9688 4.4219s-3.9062 1.4062-6.2812 1.4062c-4.2188 0-7.6836-1.6719-10.391-5.0156-2.6992-3.3516-4.0469-7.6641-4.0469-12.938 0-5.2695 1.3477-9.5781 4.0469-12.922 2.707-3.3438 6.1719-5.0156 10.391-5.0156 2.3516 0 4.4414 0.47656 6.2656 1.4219 1.8203 0.9375 3.4844 2.4062 4.9844 4.4062zm-7.2031 22.125c2.3438 0 4.1289-0.85156 5.3594-2.5625 1.2266-1.707 1.8438-4.1914 1.8438-7.4531 0-3.25-0.61719-5.7266-1.8438-7.4375-1.2305-1.707-3.0156-2.5625-5.3594-2.5625-2.3125 0-4.0898 0.85547-5.3281 2.5625-1.2305 1.7109-1.8438 4.1875-1.8438 7.4375 0 3.2617 0.61328 5.7461 1.8438 7.4531 1.2383 1.7109 3.0156 2.5625 5.3281 2.5625z"/>
  </symbol>
  <symbol id="e" overflow="visible">
   <path d="m23.438-7.0469c2.3438 0 4.1289-0.85156 5.3594-2.5625 1.2266-1.707 1.8438-4.1914 1.8438-7.4531 0-3.25-0.61719-5.7266-1.8438-7.4375-1.2305-1.707-3.0156-2.5625-5.3594-2.5625s-4.1406 0.85938-5.3906 2.5781-1.875 4.1953-1.875 7.4219c0 3.2422 0.625 5.7188 1.875 7.4375s3.0469 2.5781 5.3906 2.5781zm-7.2656-22.125c1.5078-2 3.1758-3.4688 5-4.4062 1.832-0.94531 3.9414-1.4219 6.3281-1.4219 4.207 0 7.6641 1.6719 10.375 5.0156 2.707 3.3438 4.0625 7.6523 4.0625 12.922 0 5.2734-1.3555 9.5859-4.0625 12.938-2.7109 3.3438-6.168 5.0156-10.375 5.0156-2.3867 0-4.4961-0.47656-6.3281-1.4219-1.8242-0.94531-3.4922-2.4141-5-4.4062v4.9375h-10.922v-47.484h10.922z"/>
  </symbol>
  <symbol id="d" overflow="visible">
   <path d="m0.76562-34.188h10.922l9.1875 23.203 7.8125-23.203h10.922l-14.375 37.422c-1.4375 3.8008-3.1211 6.457-5.0469 7.9688-1.9297 1.5195-4.4648 2.2812-7.6094 2.2812h-6.3281v-7.1719h3.4219c1.8516 0 3.2031-0.29688 4.0469-0.89062 0.84375-0.58594 1.5-1.6367 1.9688-3.1562l0.29688-0.95312z"/>
  </symbol>
  <symbol id="c" overflow="visible">
   <path d="m37.438-44.125v9.6406c-2.5-1.1133-4.9453-1.957-7.3281-2.5312-2.375-0.57031-4.6211-0.85938-6.7344-0.85938-2.8047 0-4.875 0.39062-6.2188 1.1719-1.3438 0.77344-2.0156 1.9688-2.0156 3.5938 0 1.2188 0.45312 2.1719 1.3594 2.8594 0.90625 0.67969 2.5469 1.2617 4.9219 1.75l5 1c5.0703 1.0234 8.6758 2.5703 10.812 4.6406 2.1328 2.0742 3.2031 5.0273 3.2031 8.8594 0 5.0234-1.4922 8.7617-4.4688 11.219-2.9805 2.4492-7.5312 3.6719-13.656 3.6719-2.8984 0-5.7969-0.27734-8.7031-0.82812s-5.8125-1.3633-8.7188-2.4375v-9.9219c2.9062 1.543 5.7109 2.7109 8.4219 3.5 2.7188 0.78125 5.3359 1.1719 7.8594 1.1719 2.5703 0 4.5352-0.42578 5.8906-1.2812 1.3633-0.85156 2.0469-2.0781 2.0469-3.6719 0-1.4141-0.46484-2.5078-1.3906-3.2812-0.91797-0.78125-2.7617-1.4727-5.5312-2.0781l-4.5469-1.0156c-4.5625-0.97656-7.8984-2.5352-10-4.6719-2.1055-2.1328-3.1562-5.0078-3.1562-8.625 0-4.5391 1.4609-8.0312 4.3906-10.469 2.9375-2.4453 7.1484-3.6719 12.641-3.6719 2.5 0 5.0703 0.19531 7.7188 0.57812 2.6445 0.375 5.3789 0.9375 8.2031 1.6875z"/>
  </symbol>
  <symbol id="m" overflow="visible">
   <path d="m36.922-28.5c1.3828-2.1133 3.0234-3.7227 4.9219-4.8281 1.9062-1.1133 4-1.6719 6.2812-1.6719 3.9258 0 6.9141 1.2148 8.9688 3.6406 2.0625 2.418 3.0938 5.9336 3.0938 10.547v20.812h-11v-17.828c0.019531-0.25781 0.035156-0.53125 0.046875-0.8125 0.007813-0.28906 0.015625-0.69531 0.015625-1.2188 0-2.4258-0.35547-4.1797-1.0625-5.2656-0.71094-1.0938-1.8594-1.6406-3.4531-1.6406-2.0742 0-3.6797 0.85547-4.8125 2.5625-1.125 1.7109-1.7109 4.1836-1.75 7.4219v16.781h-10.984v-17.828c0-3.7812-0.32812-6.2109-0.98438-7.2969-0.64844-1.0938-1.8047-1.6406-3.4688-1.6406-2.0938 0-3.7148 0.85938-4.8594 2.5781-1.1367 1.7188-1.7031 4.1797-1.7031 7.375v16.812h-10.984v-34.188h10.984v5.0156c1.3438-1.9375 2.8828-3.3906 4.625-4.3594 1.7383-0.97656 3.6562-1.4688 5.75-1.4688 2.3633 0 4.4453 0.57422 6.25 1.7188 1.8125 1.1367 3.1875 2.7305 4.125 4.7812z"/>
  </symbol>
  <symbol id="l" overflow="visible">
   <path d="m31.953-33.109v8.2969c-2.3438-0.97656-4.6055-1.707-6.7812-2.1875-2.1797-0.48828-4.2305-0.73438-6.1562-0.73438-2.0742 0-3.6172 0.26172-4.625 0.78125-1.0117 0.51172-1.5156 1.3086-1.5156 2.3906 0 0.875 0.37891 1.5469 1.1406 2.0156 0.76953 0.46875 2.1406 0.8125 4.1094 1.0312l1.9219 0.28125c5.5938 0.71094 9.3516 1.875 11.281 3.5 1.9375 1.625 2.9062 4.1797 2.9062 7.6562 0 3.6484-1.3438 6.3867-4.0312 8.2188-2.6797 1.8359-6.6836 2.75-12.016 2.75-2.2617 0-4.6016-0.18359-7.0156-0.54688-2.4062-0.35156-4.8828-0.88281-7.4219-1.5938v-8.2969c2.1758 1.0547 4.4102 1.8438 6.7031 2.375 2.2891 0.53125 4.6133 0.79688 6.9688 0.79688 2.1328 0 3.7383-0.28906 4.8125-0.875 1.082-0.59375 1.625-1.4727 1.625-2.6406 0-0.97656-0.37109-1.7031-1.1094-2.1719-0.74219-0.47656-2.2188-0.85156-4.4375-1.125l-1.9219-0.23438c-4.8672-0.61328-8.2773-1.7422-10.234-3.3906-1.9492-1.6445-2.9219-4.1484-2.9219-7.5156 0-3.6133 1.2383-6.2969 3.7188-8.0469 2.4883-1.75 6.2969-2.625 11.422-2.625 2.0078 0 4.125 0.15234 6.3438 0.45312 2.2188 0.30469 4.6289 0.78125 7.2344 1.4375z"/>
  </symbol>
  <symbol id="k" overflow="visible">
   <path d="m39.609-20.812v20.812h-10.984v-15.875c0-2.9883-0.070312-5.0391-0.20312-6.1562-0.125-1.125-0.35547-1.9453-0.6875-2.4688-0.42969-0.71875-1.0078-1.2734-1.7344-1.6719-0.73047-0.39453-1.5625-0.59375-2.5-0.59375-2.2812 0-4.0742 0.88281-5.375 2.6406-1.3047 1.7617-1.9531 4.1992-1.9531 7.3125v16.812h-10.922v-47.484h10.922v18.312c1.6445-2 3.3945-3.4688 5.25-4.4062 1.8516-0.94531 3.8984-1.4219 6.1406-1.4219 3.9453 0 6.9414 1.2148 8.9844 3.6406 2.0391 2.418 3.0625 5.9336 3.0625 10.547z"/>
  </symbol>
  <symbol id="j" overflow="visible">
   <path d="m5.25-34.188h10.922v34.188h-10.922zm0-13.297h10.922v8.9062h-10.922z"/>
  </symbol>
  <symbol id="i" overflow="visible">
   <path d="m32.875-33.109v8.9062c-1.4922-1.0078-2.9844-1.7578-4.4844-2.25-1.4922-0.48828-3.0391-0.73438-4.6406-0.73438-3.0547 0-5.4336 0.89062-7.1406 2.6719-1.6992 1.7812-2.5469 4.2656-2.5469 7.4531 0 3.1992 0.84766 5.6875 2.5469 7.4688 1.707 1.7812 4.0859 2.6719 7.1406 2.6719 1.707 0 3.3281-0.25391 4.8594-0.76562 1.5391-0.50781 2.9609-1.2656 4.2656-2.2656v8.9531c-1.7188 0.625-3.4609 1.0938-5.2188 1.4062-1.75 0.32031-3.5117 0.48438-5.2812 0.48438-6.168 0-10.992-1.582-14.469-4.75-3.4805-3.1641-5.2188-7.5664-5.2188-13.203 0-5.6328 1.7383-10.031 5.2188-13.188 3.4766-3.1641 8.3008-4.75 14.469-4.75 1.7891 0 3.5547 0.15625 5.2969 0.46875 1.7383 0.3125 3.4727 0.78906 5.2031 1.4219z"/>
  </symbol>
 </defs>
 <g>
  <path d="m575 218.75c0 13.809-11.191 25-25 25s-25-11.191-25-25 11.191-25 25-25 25 11.191 25 25"/>
  <path d="m225 418.75h472.78c-6.3008-38.867-22.781-143.51-22.781-175 2.6055-35.332 7.4727-70.457 14.574-105.16 4.0469-23.188 8.2109-46.996 9.7773-60.98-11.68 0.40234-34.191 3.7656-53.031 6.582-27.617 4.6602-55.457 7.8516-83.41 9.5547-22.992-0.9375-45.672-5.6172-67.16-13.848-17.578-5.6094-44.168-14.082-46.359-7.2852-5.1016 13.324-11.316 26.195-18.578 38.477l19.676 19.676c3.1836 3.1523 4.4375 7.7656 3.2852 12.098-1.1523 4.3281-4.5352 7.7109-8.8633 8.8633-4.332 1.1523-8.9453-0.10156-12.098-3.2852l-14.996-14.996c-2.2773 3.7773-4.6641 7.6602-7.1055 11.594l19 19.004c4.8828 4.8789 4.8828 12.793 0 17.676-4.8789 4.8789-12.793 4.8789-17.676 0l-15.082-15.082c-2.875 4.4102-5.8086 8.8477-8.7969 13.316l19.07 19.074c3.1602 3.1562 4.3906 7.7578 3.2344 12.07-1.1523 4.3164-4.5234 7.6836-8.8359 8.8398s-8.9141-0.078125-12.074-3.2344l-15.777-15.777c-2.6758 3.8125-5.3789 7.6094-8.1055 11.387l18.672 18.672c3.1562 3.1562 4.3906 7.7617 3.2344 12.074s-4.5234 7.6836-8.8398 8.8359c-4.3125 1.1562-8.9141-0.074219-12.07-3.2344l-16.016-16.012c-3.1641 4.1758-6.332 8.2773-9.5 12.305l19.293 19.297c4.8828 4.8789 4.8828 12.793 0 17.676-4.8789 4.8789-12.793 4.8789-17.676 0l-17.469-17.469c-3.8398 4.5469-7.6367 8.8945-11.383 13.035l19.922 19.926c3.207 3.1445 4.4766 7.7734 3.3281 12.113-1.1523 4.3438-4.543 7.7344-8.8867 8.8867-4.3398 1.1484-8.9688-0.12109-12.113-3.3281l-19.57-19.566c-4.6094 4.4648-9.4414 8.6914-14.48 12.668l14.223 14.227c3.207 3.1445 4.4766 7.7734 3.3281 12.113-1.1523 4.3438-4.543 7.7344-8.8867 8.8867-4.3398 1.1484-8.9688-0.12109-12.113-3.3281l-18.758-18.754c-19.246 9.0078-39.707 15.156-60.73 18.246-2.1641 17.117-6.8633 33.816-13.941 49.551-4.8477 9.9648-11.094 19.188-18.547 27.387 22.457 1.4219 47.73 2.2344 58.312 2.2344zm296.38-28.625c-1.1992 1.1289-2.5977 2.0195-4.125 2.625-3.0273 1.3359-6.4766 1.3359-9.5039 0-1.5117-0.63672-2.9062-1.5234-4.1211-2.625-2.2812-2.3945-3.5781-5.5664-3.625-8.875 0.019531-0.79688 0.10156-1.5898 0.25-2.375 0.11328-0.82812 0.36719-1.6328 0.74609-2.3789 0.27344-0.79688 0.65234-1.5508 1.1289-2.2461 0.5-0.62891 1-1.2539 1.5-1.875 5.0117-4.625 12.738-4.625 17.75 0 0.53906 0.59375 1.0391 1.2188 1.4961 1.875 0.47266 0.69531 0.85156 1.4492 1.1289 2.2461 0.375 0.74609 0.62891 1.5508 0.75 2.3789 0.14453 0.78516 0.22656 1.5781 0.25 2.375-0.050781 3.3086-1.3438 6.4766-3.625 8.875zm75 0c-4.9023 4.9023-12.848 4.9023-17.75 0-4.8984-4.9023-4.8984-12.848 0-17.75 4.9023-4.8984 12.848-4.8984 17.75 0 2.3008 2.3867 3.5977 5.5625 3.625 8.875-0.050781 3.3086-1.3438 6.4766-3.625 8.875zm-46.375-271.38c55.227 0 100 44.773 100 100s-44.773 100-100 100-100-44.773-100-100c0.0625-55.203 44.797-99.938 100-100z"/>
  <path d="m134.16 413.48c11.699-9.6289 21.359-21.496 28.418-34.906 5.2031-11.555 8.8711-23.738 10.902-36.246-20.918 1.4141-44.465 1.418-73.477 1.418-53.777 0-81.062 25.316-93.039 41.527l120.76 26.918c2.1172 0.5625 4.2656 0.99219 6.4336 1.2891z"/>
  <path d="m550 293.75c41.422 0 75-33.578 75-75s-33.578-75-75-75-75 33.578-75 75c0.046875 41.402 33.598 74.953 75 75zm0-125c27.613 0 50 22.387 50 50s-22.387 50-50 50-50-22.387-50-50c0.03125-27.602 22.398-49.969 50-50z"/>
  <path d="m675 506.25v12.5h25v-25h-12.5c-6.8984 0.007812-12.492 5.6016-12.5 12.5z"/>
  <path d="m225 443.75c-6.1875 0-57.176-1.1055-86.746-4.4922-0.24609 0.015626-0.48828 0.11719-0.73438 0.11719-0.64453-0.097656-1.2773-0.24609-1.8945-0.44141-4.7969-0.5-9.5508-1.3555-14.219-2.5625l-121.41-27.031v71.91c-0.0078125 4.6445 2.5703 8.9102 6.6836 11.066l70.77 14.176c32.203 6.2812 64.793 10.375 97.547 12.258h475v-12.5c0.023438-20.703 16.797-37.477 37.5-37.5h12.5v-25zm387.5 50h-425c-6.9023 0-12.5-5.5977-12.5-12.5s5.5977-12.5 12.5-12.5h425c6.9023 0 12.5 5.5977 12.5 12.5s-5.5977 12.5-12.5 12.5z"/>
 </g>
</svg>
